<svg width="103" height="51" viewBox="0 0 103 51" fill="none" xmlns="http://www.w3.org/2000/svg">
<g clip-path="url(#clip0_2002_133)">
<path d="M98.5788 22.9377L102.721 25.1949L98.5788 27.4702L96.3125 31.6039L94.0462 27.4702L89.9035 25.1949L94.0462 22.9377L96.3125 18.7859L98.5788 22.9377Z" fill="#FF5D17" stroke="white" stroke-width="0.748118" stroke-miterlimit="10"/>
</g>
<g clip-path="url(#clip1_2002_133)">
<path d="M8.81117 22.9377L12.9539 25.1949L8.81117 27.4702L6.54492 31.6039L4.27867 27.4702L0.135959 25.1949L4.27867 22.9377L6.54492 18.7859L8.81117 22.9377Z" fill="#FF5D17" stroke="white" stroke-width="0.748118" stroke-miterlimit="10"/>
</g>
<circle cx="51.4286" cy="25.204" r="25.204" fill="#3177F2"/>
<g clip-path="url(#clip2_2002_133)">
<path d="M47.9582 15.6631C47.8973 15.7202 47.8419 15.7774 47.7866 15.8346C45.9432 17.7394 44.4545 19.8211 43.552 21.7371L40.8733 21.0852C40.2203 20.9306 40.0318 20.0669 40.5468 19.6326L44.5928 16.218C45.3733 15.5603 46.4029 15.3029 47.3879 15.5317L47.9582 15.6631ZM60.789 29.3786L60.6619 28.7839C60.6121 28.8469 60.5512 28.9099 60.4958 28.9671C58.6525 30.8719 56.6379 32.4103 54.7837 33.3428L55.4146 36.1113C55.5642 36.786 56.4001 36.9808 56.8204 36.4486L60.1248 32.2677C60.7613 31.4608 61.0104 30.3969 60.789 29.3786ZM43.3254 25.0605L42.711 25.6955C42.3953 26.0216 42.3953 26.5476 42.711 26.8737L49.8128 34.2118C50.1285 34.538 50.6374 34.538 50.9531 34.2118L51.5675 33.5769L43.3254 25.0605ZM55.3368 18.3627C53.8368 18.3627 52.6248 19.621 52.6248 21.1652C52.6248 22.7152 53.8368 23.9676 55.3368 23.9676C56.8312 23.9676 58.0488 22.7152 58.0488 21.1652C58.0488 19.621 56.8312 18.3627 55.3368 18.3627ZM59.3223 27.7544C57.1468 30.0024 54.7115 31.7012 52.7411 32.3642L44.4994 23.8479C45.1415 21.8117 46.7856 19.2952 48.9606 17.0473C54.2242 11.6135 63.6338 10.0519 64.8627 11.3218C66.0916 12.5916 64.5803 22.3148 59.3223 27.7544ZM59.7097 21.1652C59.7097 18.6773 57.7449 16.6465 55.3368 16.6465C52.9235 16.6465 50.9639 18.6768 50.9639 21.1652C50.9639 23.6589 52.9235 25.6839 55.3368 25.6839C57.7444 25.6839 59.7097 23.6593 59.7097 21.1652ZM38.9677 33.4451L42.036 30.274C42.3512 29.9487 42.3512 29.4219 42.036 29.0962C41.7212 28.7705 41.2114 28.7705 40.8962 29.0962L37.8278 32.2673C37.5126 32.5926 37.5126 33.1194 37.8278 33.4451C37.9852 33.6077 38.1919 33.6891 38.3978 33.6891C38.604 33.6891 38.8103 33.6077 38.9677 33.4451ZM39.3694 38.8427L44.8497 33.181C45.1649 32.8557 45.1649 32.3289 44.8497 32.0032C44.5349 31.6775 44.0251 31.6775 43.7099 32.0032L38.2296 37.6653C37.9143 37.9906 37.9143 38.5174 38.2296 38.8431C38.3869 39.0058 38.5936 39.0871 38.7995 39.0871C39.0062 39.0871 39.212 39.0058 39.3694 38.8427ZM44.5937 39.2582L47.6625 36.0871C47.9777 35.7618 47.9773 35.2351 47.6625 34.9093C47.3477 34.5836 46.8379 34.5836 46.5227 34.9093L43.4543 38.0804C43.1391 38.4057 43.1391 38.9325 43.4543 39.2582C43.6108 39.4208 43.8175 39.5022 44.0233 39.5022C44.2296 39.5022 44.4359 39.4208 44.5937 39.2582Z" fill="white"/>
</g>
<defs>
<clipPath id="clip0_2002_133">
<rect width="9.25594" height="9.25594" fill="white" transform="translate(96.3125 18.6591) rotate(45)"/>
</clipPath>
<clipPath id="clip1_2002_133">
<rect width="9.25594" height="9.25594" fill="white" transform="translate(6.54492 18.6591) rotate(45)"/>
</clipPath>
<clipPath id="clip2_2002_133">
<rect width="27.6739" height="28.5964" fill="white" transform="translate(37.5913 10.9058)"/>
</clipPath>
</defs>
</svg>
